# xmcd
#
# Track frame offsets:
#	150
#	9728
#	18783
#	31183
#	44293
#	56258
#	69260
#	78548
#	90380
#	104083
#	117410
#	127195
#	139913
#	148963
#	160108
#	169158
#	181283
#	194133
#	205185
#	217893
#	231115
#	244375
#	255890
#	267145
#
# Disc length: 3737 seconds
# Revision: 3
# Processed by: cddbd v1.5.2PL0 Copyright (c) Steve Scherf et al.
# Submitted via: dBpowerAMP V12.0
#
DISCID=550e9718
DTITLE=Little Walter - The Chess Years 1952-1963 [Disc 3]
DYEAR=1900
DGENRE=Blues
TTITLE0=Nobody But You
TTITLE1=Temperature
TTITLE2=Shake Dancer
TTITLE3=Everybody Needs Somebody
TTITLE4=Temperature
TTITLE5=Ah'W Baby
TTITLE6=I Had My Fun
TTITLE7=The Toddle
TTITLE8=Confessin' the Blues
TTITLE9=Key to the Highway
TTITLE10=Rock Bottom
TTITLE11=You Gonna Be Sorry
TTITLE12=Baby
TTITLE13=My Baby's Sweeter
TTITLE14=Crazy Mixed Up World
TTITLE15=Worried Life
TTITLE16=Everything's Going to Be All Right
TTITLE17=Mean Old Frisco
TTITLE18=Back Track
TTITLE19=One of These Mornings
TTITLE20=Blue and Lonesome
TTITLE21=Me and Piney Brown
TTITLE22=Break It Up
TTITLE23=Going Down Slow
EXTD=
EXTT0=
EXTT1=
EXTT2=
EXTT3=
EXTT4=
EXTT5=
EXTT6=
EXTT7=
EXTT8=
EXTT9=
EXTT10=
EXTT11=
EXTT12=
EXTT13=
EXTT14=
EXTT15=
EXTT16=
EXTT17=
EXTT18=
EXTT19=
EXTT20=
EXTT21=
EXTT22=
EXTT23=
PLAYORDER=
